# Blender 4.1.1
# www.blender.org
mtllib enemy.mtl
o 立方体
v -0.452049 -0.279241 0.175026
v -0.340233 -0.391056 0.221342
v -0.452049 -0.187389 0.266878
v -0.340233 -0.233705 0.378693
v -0.452049 0.187389 0.266878
v -0.340233 0.233705 0.378693
v -0.452049 0.279241 0.175026
v -0.340233 0.391056 0.221342
v -0.452049 -0.187389 -0.266878
v -0.340233 -0.233705 -0.378693
v -0.452049 -0.279241 -0.175026
v -0.340233 -0.391056 -0.221342
v -0.452049 0.279241 -0.175026
v -0.340233 0.391056 -0.221342
v -0.452049 0.187389 -0.266878
v -0.340233 0.233705 -0.378693
v 0.452049 -0.187389 0.266878
v 0.340233 -0.233705 0.378693
v 0.452049 -0.279241 0.175026
v 0.340233 -0.391056 0.221342
v 0.452049 0.279241 0.175026
v 0.340233 0.391056 0.221342
v 0.452049 0.187389 0.266878
v 0.340233 0.233705 0.378693
v 0.452049 -0.279241 -0.175026
v 0.340233 -0.391056 -0.221342
v 0.452049 -0.187389 -0.266878
v 0.340233 -0.233705 -0.378693
v 0.452049 0.187389 -0.266878
v 0.340233 0.233705 -0.378693
v 0.452049 0.279241 -0.175026
v 0.340233 0.391056 -0.221342
vn -0.0000 0.7071 0.7071
vn -0.0000 -0.7071 -0.7071
vn -0.0000 -0.0000 1.0000
vn -0.0000 0.7071 -0.7071
vn -0.0000 -0.0000 -1.0000
vn 1.0000 -0.0000 -0.0000
vn -0.0000 -1.0000 -0.0000
vn -0.0000 1.0000 -0.0000
vn -1.0000 -0.0000 -0.0000
vn 0.7071 -0.5000 -0.5000
vn -0.7071 -0.5000 -0.5000
vn -0.7071 0.5000 -0.5000
vn 0.7071 0.5000 -0.5000
vn -0.7071 -0.5000 0.5000
vn 0.7071 -0.5000 0.5000
vn 0.7071 0.5000 0.5000
vn -0.7071 0.5000 0.5000
vn -0.7071 -0.7071 -0.0000
vn 0.7071 -0.7071 -0.0000
vn -0.7071 -0.0000 0.7071
vn -0.7071 0.7071 -0.0000
vn -0.7071 -0.0000 -0.7071
vn 0.7071 -0.0000 0.7071
vn 0.7071 0.7071 -0.0000
vn 0.7071 -0.0000 -0.7071
vn -0.0000 -0.7071 0.7071
vt 0.261972 0.744298
vt 0.209400 0.583538
vt 0.261972 0.583538
vt 0.073423 0.744298
vt 0.020851 0.583538
vt 0.073423 0.583538
vt 0.131277 0.381076
vt 0.020851 0.541836
vt 0.020851 0.381076
vt 0.277929 0.330501
vt 0.438689 0.277929
vt 0.438689 0.330501
vt 0.172979 0.541836
vt 0.283404 0.381075
vt 0.283404 0.541836
vt 0.303674 0.605238
vt 0.325374 0.583538
vt 0.429774 0.605238
vt 0.325107 0.381076
vt 0.429691 0.541836
vt 0.325107 0.541836
vt 0.575977 0.541836
vt 0.471393 0.381076
vt 0.575977 0.381076
vt 0.748395 0.020851
vt 0.770095 0.042551
vt 0.748395 0.146951
vt 0.968207 0.258033
vt 0.926577 0.295391
vt 0.937519 0.258033
vt 0.937519 0.058210
vt 0.979149 0.020851
vt 0.968207 0.058210
vt 0.937519 0.374452
vt 0.979149 0.337093
vt 0.968207 0.374452
vt 0.822739 0.861184
vt 0.864369 0.823826
vt 0.853427 0.861184
vt 0.968207 0.416154
vt 0.926577 0.453513
vt 0.937519 0.416154
vt 0.968207 0.099912
vt 0.926577 0.137270
vt 0.937519 0.099912
vt 0.968207 0.178972
vt 0.926577 0.216331
vt 0.937519 0.178972
vt 0.968207 0.495215
vt 0.926577 0.532573
vt 0.937519 0.495215
vt 0.649095 0.384133
vt 0.742737 0.346774
vt 0.731795 0.384133
vt 0.731795 0.425835
vt 0.638153 0.463193
vt 0.649095 0.425835
vt 0.508835 0.693963
vt 0.471476 0.594480
vt 0.508835 0.583538
vt 0.638153 0.542254
vt 0.731795 0.504895
vt 0.742737 0.542254
vt 0.638153 0.226011
vt 0.737637 0.188653
vt 0.748579 0.226011
vt 0.737637 0.267713
vt 0.638153 0.305072
vt 0.649095 0.267713
vt 0.649095 0.621314
vt 0.742737 0.583956
vt 0.731795 0.621314
vt 0.550537 0.594480
vt 0.587895 0.693963
vt 0.550537 0.683021
vt 0.115126 0.583538
vt 0.167698 0.744298
vt 0.115126 0.744298
vt 0.209400 0.744298
vt 0.020851 0.744298
vt 0.131277 0.541836
vt 0.277929 0.277929
vt 0.172979 0.381076
vt 0.408074 0.583538
vt 0.429774 0.693779
vt 0.303674 0.693779
vt 0.408074 0.715479
vt 0.325374 0.715479
vt 0.429691 0.381075
vt 0.471393 0.541836
vt 0.770095 0.125251
vt 0.659853 0.146951
vt 0.659853 0.020851
vt 0.638153 0.125251
vt 0.638153 0.042551
vt 0.979149 0.295391
vt 0.926577 0.020851
vt 0.926577 0.337093
vt 0.811797 0.823826
vt 0.979149 0.453513
vt 0.979149 0.137270
vt 0.979149 0.216331
vt 0.979149 0.532573
vt 0.638153 0.346774
vt 0.742737 0.463193
vt 0.471476 0.683021
vt 0.649095 0.504895
vt 0.649095 0.188653
vt 0.748579 0.305072
vt 0.638153 0.583956
vt 0.587895 0.583538
vt 0.167698 0.583538
s 0
usemtl マテリアル.006
f 8/1/1 24/2/1 22/3/1
f 12/4/2 28/5/2 26/6/2
f 24/7/3 4/8/3 18/9/3
f 32/10/4 16/11/4 14/12/4
f 16/13/5 28/14/5 10/15/5
f 17/16/6 19/17/6 27/18/6
f 26/19/7 2/20/7 12/21/7
f 14/22/8 22/23/8 32/24/8
f 9/25/9 11/26/9 3/27/9
f 25/28/10 28/29/10 27/30/10
f 9/31/11 12/32/11 11/33/11
f 13/34/12 16/35/12 15/36/12
f 29/37/13 32/38/13 31/39/13
f 1/40/14 4/41/14 3/42/14
f 17/43/15 20/44/15 19/45/15
f 21/46/16 24/47/16 23/48/16
f 5/49/17 8/50/17 7/51/17
f 11/52/18 2/53/18 1/54/18
f 19/55/19 26/56/19 25/57/19
f 6/58/20 3/59/20 4/60/20
f 14/61/21 7/62/21 8/63/21
f 10/64/22 15/65/22 16/66/22
f 23/67/23 18/68/23 17/69/23
f 31/70/24 22/71/24 21/72/24
f 27/73/25 30/74/25 29/75/25
f 20/76/26 4/77/26 2/78/26
f 8/1/1 6/79/1 24/2/1
f 12/4/2 10/80/2 28/5/2
f 24/7/3 6/81/3 4/8/3
f 32/10/4 30/82/4 16/11/4
f 16/13/5 30/83/5 28/14/5
f 19/17/6 25/84/6 27/18/6
f 27/18/6 29/85/6 23/86/6
f 29/85/6 31/87/6 23/86/6
f 31/87/6 21/88/6 23/86/6
f 23/86/6 17/16/6 27/18/6
f 26/19/7 20/89/7 2/20/7
f 14/22/8 8/90/8 22/23/8
f 11/26/9 1/91/9 3/27/9
f 3/27/9 5/92/9 15/93/9
f 5/92/9 7/94/9 15/93/9
f 7/94/9 13/95/9 15/93/9
f 15/93/9 9/25/9 3/27/9
f 25/28/10 26/96/10 28/29/10
f 9/31/11 10/97/11 12/32/11
f 13/34/12 14/98/12 16/35/12
f 29/37/13 30/99/13 32/38/13
f 1/40/14 2/100/14 4/41/14
f 17/43/15 18/101/15 20/44/15
f 21/46/16 22/102/16 24/47/16
f 5/49/17 6/103/17 8/50/17
f 11/52/18 12/104/18 2/53/18
f 19/55/19 20/105/19 26/56/19
f 6/58/20 5/106/20 3/59/20
f 14/61/21 13/107/21 7/62/21
f 10/64/22 9/108/22 15/65/22
f 23/67/23 24/109/23 18/68/23
f 31/70/24 32/110/24 22/71/24
f 27/73/25 28/111/25 30/74/25
f 20/76/26 18/112/26 4/77/26
o 立方体.001
v -0.060819 -0.668553 -0.278105
v -0.060819 0.668553 -0.278105
v 0.060819 -0.668553 -0.278105
v 0.060819 0.668553 -0.278105
v -0.060819 -0.645681 0.198717
v -0.060819 -0.601954 0.369181
v -0.060819 -0.471358 0.511796
v 0.060819 0.389885 -0.041311
v -0.060819 0.389885 -0.041311
v -0.060819 0.471358 0.511796
v -0.060819 0.601954 0.369181
v -0.060819 0.645681 0.198717
v 0.060819 0.000000 -0.206688
v 0.060819 -0.471358 0.511796
v 0.060819 -0.601954 0.369181
v 0.060819 -0.645681 0.198717
v 0.060819 0.645681 0.198717
v 0.060819 0.601954 0.369181
v 0.060819 0.471358 0.511796
v -0.060819 0.000000 -0.206688
v -0.060819 -0.380592 0.563000
v -0.060819 -0.261340 0.605768
v -0.060819 0.261340 0.605768
v -0.060819 0.380592 0.563000
v 0.060819 -0.261340 0.605768
v 0.060819 -0.380592 0.563000
v 0.060819 0.380592 0.563000
v 0.060819 0.261340 0.605768
v -0.060819 -0.389902 -0.085037
v 0.060819 -0.389902 -0.085037
v 0.060819 0.584828 -0.166006
v -0.060819 0.584828 -0.166006
v -0.060819 -0.586669 -0.167121
v 0.060819 -0.586669 -0.167121
v -0.060819 0.194943 -0.071407
v 0.060819 0.194943 -0.071407
v 0.060819 -0.194943 -0.071407
v -0.060819 -0.194943 -0.071407
v -0.060819 -0.674121 -0.071462
v 0.060819 -0.674121 -0.071462
v -0.060819 0.674121 -0.071462
v 0.060819 0.674121 -0.071462
v -0.060819 0.000000 0.633538
v 0.060819 0.000000 0.633538
v 0.000000 -0.699264 -0.341047
v 0.000000 0.699264 -0.341047
v 0.000000 -0.665384 0.355934
v 0.000000 -0.601954 0.526397
v 0.000000 0.000000 -0.206688
v 0.000000 -0.471358 0.669013
v 0.000000 0.665384 0.355934
v 0.000000 0.601954 0.526397
v 0.000000 0.471358 0.669013
v 0.000000 0.389885 -0.041311
v 0.000000 -0.261340 0.762984
v 0.000000 -0.380592 0.720216
v 0.000000 0.261340 0.762984
v 0.000000 0.380592 0.720216
v 0.000000 -0.389902 -0.085037
v 0.000000 0.584828 -0.166006
v 0.000000 -0.586669 -0.167121
v 0.000000 0.194943 -0.071407
v 0.000000 -0.194943 -0.071407
v 0.000000 -0.708253 0.085755
v 0.000000 0.708253 0.085755
v 0.000000 0.000000 0.790755
vn -0.8677 0.3666 0.3357
vn -0.0000 -0.8012 -0.5984
vn -0.0000 -0.5701 -0.8216
vn 0.9139 0.1994 0.3535
vn 0.5870 -0.7996 0.1269
vn -0.5870 0.7996 0.1269
vn -0.9320 0.0383 0.3605
vn 0.6696 -0.6961 0.2590
vn -1.0000 -0.0000 -0.0000
vn -0.6696 0.6961 0.2590
vn 1.0000 -0.0000 -0.0000
vn 0.8677 -0.3666 0.3357
vn -0.9249 -0.1283 0.3578
vn 0.9249 0.1283 0.3578
vn -0.9139 -0.1994 0.3535
vn -0.0000 0.1526 -0.9883
vn -0.0000 0.3850 -0.9229
vn -0.0000 -0.5388 -0.8424
vn 0.1372 0.8315 -0.5383
vn -0.0000 0.5701 -0.8216
vn -0.0000 0.0697 -0.9976
vn 0.4520 -0.8918 -0.0188
vn -0.4520 0.8918 -0.0188
vn -0.9320 -0.0383 0.3605
vn 0.9320 -0.0383 0.3605
vn 0.4701 0.8823 -0.0238
vn -0.4701 -0.8823 -0.0238
vn -0.1372 0.8315 -0.5383
vn 0.9139 -0.1994 0.3535
vn -0.9249 0.1283 0.3578
vn 0.9249 -0.1283 0.3578
vn -0.8677 -0.3666 0.3357
vn 0.6911 0.7001 0.1796
vn -0.6911 -0.7001 0.1796
vn 0.9320 0.0383 0.3605
vn 0.6381 0.7657 0.0806
vn -0.6381 -0.7657 0.0806
vn -0.9139 0.1994 0.3535
vn 0.8677 0.3666 0.3357
vn 0.1422 -0.8285 -0.5416
vn 0.6381 -0.7657 0.0806
vn -0.6381 0.7657 0.0806
vn 0.6911 -0.7001 0.1796
vn -0.6911 0.7001 0.1796
vn -0.0000 0.8047 -0.5937
vn 0.4701 -0.8823 -0.0238
vn -0.4701 0.8823 -0.0238
vn 0.4520 0.8918 -0.0188
vn -0.4520 -0.8918 -0.0188
vn 0.6696 0.6961 0.2590
vn -0.6696 -0.6961 0.2590
vn 0.5870 0.7996 0.1269
vn -0.5870 -0.7996 0.1269
vn -0.1422 -0.8285 -0.5416
vt 0.839189 0.049759
vt 0.857482 0.020851
vt 0.884875 0.049759
vt 0.428097 0.928621
vt 0.413581 0.961611
vt 0.413729 0.928557
vt 0.867855 0.655614
vt 0.811797 0.669983
vt 0.811797 0.655614
vt 0.937859 0.596158
vt 0.966401 0.574275
vt 0.977684 0.596158
vt 0.215759 0.850595
vt 0.197098 0.822507
vt 0.213680 0.786000
vt 0.155396 0.850595
vt 0.136735 0.822507
vt 0.153316 0.786000
vt 0.815721 0.283035
vt 0.873886 0.243404
vt 0.877811 0.283035
vt 0.582811 0.828860
vt 0.562932 0.822105
vt 0.579738 0.786000
vt 0.527105 0.037516
vt 0.529301 0.180284
vt 0.483245 0.187394
vt 0.521230 0.828860
vt 0.501351 0.822105
vt 0.518157 0.786000
vt 0.187394 0.134057
vt 0.187394 0.226167
vt 0.020851 0.180112
vt 0.839189 0.120369
vt 0.857482 0.091461
vt 0.884874 0.120369
vt 0.287253 0.937980
vt 0.315661 0.968382
vt 0.287253 0.977805
vt 0.076922 0.937980
vt 0.105330 0.968382
vt 0.076922 0.977805
vt 0.937859 0.659744
vt 0.966401 0.637860
vt 0.977683 0.659744
vt 0.652653 0.975158
vt 0.638285 0.928557
vt 0.652653 0.928557
vt 0.976946 0.828616
vt 0.926577 0.842984
vt 0.926577 0.828616
vt 0.866468 0.767755
vt 0.811797 0.782124
vt 0.811797 0.767755
vt 0.484304 0.977506
vt 0.469799 0.944982
vt 0.484304 0.928557
vt 0.867855 0.487403
vt 0.811797 0.501771
vt 0.811797 0.487403
vt 0.764794 0.974728
vt 0.750426 0.928557
vt 0.764794 0.928557
vt 0.037091 0.886855
vt 0.020983 0.823304
vt 0.037091 0.786000
vt 0.638153 0.679256
vt 0.701704 0.663149
vt 0.739008 0.679256
vt 0.815721 0.324737
vt 0.873886 0.364368
vt 0.811797 0.364368
vt 0.873886 0.162071
vt 0.815722 0.201702
vt 0.811797 0.162071
vt 0.078793 0.886855
vt 0.094900 0.823304
vt 0.095033 0.872141
vt 0.739008 0.737198
vt 0.675457 0.721091
vt 0.724295 0.720958
vt 0.708724 0.974728
vt 0.694355 0.928557
vt 0.708724 0.928557
vt 0.867855 0.543473
vt 0.811797 0.557842
vt 0.811797 0.543473
vt 0.540512 0.944982
vt 0.526007 0.977506
vt 0.526007 0.928557
vt 0.866468 0.711685
vt 0.811797 0.726053
vt 0.811797 0.711685
vt 0.035219 0.978926
vt 0.020851 0.928557
vt 0.035219 0.928557
vt 0.596583 0.975158
vt 0.582214 0.928557
vt 0.596583 0.928557
vt 0.937859 0.701446
vt 0.966401 0.723329
vt 0.926577 0.723329
vt 0.147032 0.968382
vt 0.175440 0.937980
vt 0.175440 0.977805
vt 0.245550 0.937980
vt 0.217142 0.968382
vt 0.217142 0.928557
vt 0.653421 0.813393
vt 0.624513 0.831685
vt 0.624513 0.786000
vt 0.378188 0.828860
vt 0.398067 0.822105
vt 0.398067 0.863681
vt 0.439769 0.828860
vt 0.459649 0.822105
vt 0.459649 0.863681
vt 0.815721 0.406070
vt 0.873886 0.445701
vt 0.811797 0.445701
vt 0.257462 0.850595
vt 0.276123 0.822507
vt 0.276123 0.886689
vt 0.317825 0.850595
vt 0.336486 0.822507
vt 0.336486 0.886689
vt 0.966401 0.786914
vt 0.937859 0.765031
vt 0.977684 0.765031
vt 0.867855 0.599544
vt 0.811797 0.613912
vt 0.811797 0.599544
vt 0.371879 0.961611
vt 0.357363 0.928621
vt 0.371731 0.928557
vt 0.695123 0.831685
vt 0.724031 0.813393
vt 0.724031 0.859078
vt 0.811797 0.020851
vt 0.428097 0.978028
vt 0.867855 0.669983
vt 0.926577 0.574275
vt 0.197098 0.886689
vt 0.136735 0.886689
vt 0.811797 0.243404
vt 0.562932 0.863681
vt 0.277929 0.187407
vt 0.284648 0.123577
vt 0.345076 0.190614
vt 0.294978 0.083305
vt 0.325832 0.049613
vt 0.391135 0.187394
vt 0.347275 0.037516
vt 0.375449 0.027412
vt 0.437190 0.020851
vt 0.498932 0.027412
vt 0.548549 0.049613
vt 0.579402 0.083305
vt 0.589732 0.123577
vt 0.596451 0.187407
vt 0.595136 0.236227
vt 0.575356 0.209743
vt 0.298590 0.210007
vt 0.279244 0.236227
vt 0.437190 0.219354
vt 0.501351 0.863681
vt 0.187407 0.020851
vt 0.236227 0.022166
vt 0.210007 0.041512
vt 0.190614 0.087998
vt 0.083306 0.037901
vt 0.123578 0.027570
vt 0.037516 0.090197
vt 0.049613 0.068754
vt 0.027412 0.118371
vt 0.037516 0.270027
vt 0.027412 0.241854
vt 0.083306 0.322324
vt 0.049613 0.291471
vt 0.180284 0.272223
vt 0.187407 0.339373
vt 0.123577 0.332655
vt 0.209743 0.318278
vt 0.236227 0.338058
vt 0.219354 0.180112
vt 0.811797 0.091461
vt 0.315661 0.928557
vt 0.105330 0.928557
vt 0.926577 0.637861
vt 0.638285 0.975158
vt 0.976946 0.842984
vt 0.866468 0.782124
vt 0.469936 0.977566
vt 0.867855 0.501771
vt 0.750426 0.974728
vt 0.020851 0.872141
vt 0.652867 0.663017
vt 0.877811 0.324737
vt 0.877811 0.201702
vt 0.078793 0.786000
vt 0.638153 0.737198
vt 0.694355 0.974728
vt 0.867855 0.557842
vt 0.540375 0.977566
vt 0.866468 0.726053
vt 0.020851 0.978926
vt 0.582214 0.975158
vt 0.977684 0.701446
vt 0.147032 0.928557
vt 0.245550 0.977805
vt 0.653421 0.859078
vt 0.381261 0.786000
vt 0.442842 0.786000
vt 0.877811 0.406070
vt 0.259541 0.786000
vt 0.319904 0.786000
vt 0.926577 0.786914
vt 0.867855 0.613912
vt 0.357363 0.978028
vt 0.695123 0.786000
s 0
usemtl マテリアル.005
f 84/113/27 42/114/27 85/115/27
f 92/116/28 36/117/28 63/118/28
f 81/119/29 69/120/29 95/121/29
f 59/122/30 85/123/30 90/124/30
f 96/125/31 48/126/31 79/127/31
f 97/128/32 44/129/32 83/130/32
f 89/131/33 75/132/33 98/133/33
f 79/134/34 47/135/34 80/136/34
f 56/137/35 41/138/35 67/139/35
f 83/140/36 43/141/36 84/142/36
f 69/143/37 68/144/37 76/145/37
f 80/146/38 46/147/38 82/148/38
f 54/149/39 88/150/39 87/151/39
f 60/152/40 90/153/40 89/154/40
f 53/155/41 82/156/41 88/157/41
f 86/158/42 68/159/42 94/160/42
f 91/161/43 66/162/43 93/163/43
f 92/164/44 40/165/44 86/166/44
f 93/167/45 35/168/45 77/169/45
f 94/170/46 45/171/46 81/172/46
f 95/173/47 62/174/47 91/175/47
f 77/176/48 72/177/48 96/178/48
f 78/179/49 73/180/49 97/181/49
f 87/182/50 75/183/50 54/184/50
f 76/185/51 87/186/51 57/187/51
f 78/188/52 74/189/52 36/190/52
f 77/191/53 71/192/53 33/193/53
f 70/194/47 91/195/47 61/196/47
f 67/197/46 81/198/46 52/199/46
f 33/200/54 93/201/54 77/202/54
f 64/203/44 86/204/44 41/205/44
f 61/206/43 93/207/43 65/208/43
f 41/209/42 94/210/42 67/211/42
f 58/212/55 82/213/55 46/214/55
f 55/215/56 90/216/56 56/217/56
f 57/218/57 88/219/57 58/220/57
f 80/221/58 39/222/58 38/223/58
f 83/224/59 50/225/59 49/226/59
f 79/227/60 38/228/60 37/229/60
f 76/230/61 89/231/61 98/232/61
f 97/233/62 49/234/62 74/235/62
f 96/236/63 37/237/63 71/238/63
f 56/239/64 85/240/64 42/241/64
f 52/242/29 95/243/29 70/244/29
f 34/245/28 92/246/28 64/247/28
f 84/248/65 51/249/65 50/250/65
f 84/113/27 43/251/27 42/114/27
f 92/116/66 78/252/66 36/117/66
f 81/119/29 45/253/29 69/120/29
f 59/122/30 51/254/30 85/123/30
f 96/125/67 72/255/67 48/126/67
f 97/128/68 73/256/68 44/129/68
f 89/131/33 55/257/33 75/132/33
f 79/134/69 48/258/69 47/135/69
f 71/259/35 37/260/35 61/261/35
f 37/260/35 38/262/35 61/261/35
f 38/262/35 39/263/35 70/264/35
f 39/263/35 53/265/35 70/264/35
f 38/262/35 70/264/35 61/261/35
f 53/265/35 54/266/35 70/264/35
f 54/266/35 75/267/35 70/264/35
f 75/267/35 55/268/35 67/139/35
f 55/268/35 56/137/35 67/139/35
f 56/137/35 42/269/35 41/138/35
f 42/269/35 43/270/35 41/138/35
f 43/270/35 44/271/35 41/138/35
f 44/271/35 73/272/35 41/138/35
f 73/272/35 34/273/35 64/274/35
f 73/272/35 64/274/35 41/138/35
f 70/264/35 75/267/35 67/139/35
f 65/275/35 33/276/35 71/259/35
f 61/261/35 65/275/35 71/259/35
f 67/139/35 52/277/35 70/264/35
f 83/140/70 44/278/70 43/141/70
f 72/279/37 35/280/37 66/281/37
f 72/279/37 66/281/37 62/282/37
f 47/283/37 48/284/37 62/282/37
f 48/284/37 72/279/37 62/282/37
f 58/285/37 46/286/37 69/143/37
f 46/286/37 47/283/37 69/143/37
f 76/145/37 57/287/37 69/143/37
f 57/287/37 58/285/37 69/143/37
f 59/288/37 60/289/37 68/144/37
f 60/289/37 76/145/37 68/144/37
f 50/290/37 51/291/37 40/292/37
f 51/291/37 59/288/37 40/292/37
f 74/293/37 49/294/37 40/292/37
f 49/294/37 50/290/37 40/292/37
f 63/295/37 36/296/37 74/293/37
f 40/292/37 63/295/37 74/293/37
f 59/288/37 68/144/37 40/292/37
f 69/143/37 47/283/37 62/282/37
f 69/143/37 45/297/37 68/144/37
f 80/146/38 47/298/38 46/147/38
f 54/149/39 53/299/39 88/150/39
f 60/152/40 59/300/40 90/153/40
f 53/155/41 39/301/41 82/156/41
f 86/158/42 40/302/42 68/159/42
f 91/161/43 62/303/43 66/162/43
f 92/164/44 63/304/44 40/165/44
f 93/167/71 66/305/71 35/168/71
f 94/170/46 68/306/46 45/171/46
f 95/173/47 69/307/47 62/174/47
f 77/176/72 35/308/72 72/177/72
f 78/179/73 34/309/73 73/180/73
f 87/182/50 98/310/50 75/183/50
f 76/185/51 98/311/51 87/186/51
f 78/188/74 97/312/74 74/189/74
f 77/191/75 96/313/75 71/192/75
f 70/194/47 95/314/47 91/195/47
f 67/197/46 94/315/46 81/198/46
f 33/200/71 65/316/71 93/201/71
f 64/203/44 92/317/44 86/204/44
f 61/206/43 91/318/43 93/207/43
f 41/209/42 86/319/42 94/210/42
f 58/212/55 88/320/55 82/213/55
f 55/215/56 89/321/56 90/216/56
f 57/218/57 87/322/57 88/219/57
f 80/221/58 82/323/58 39/222/58
f 83/224/76 84/324/76 50/225/76
f 79/227/77 80/325/77 38/228/77
f 76/230/61 60/326/61 89/231/61
f 97/233/78 83/327/78 49/234/78
f 96/236/79 79/328/79 37/237/79
f 56/239/64 90/329/64 85/240/64
f 52/242/29 81/330/29 95/243/29
f 34/245/80 78/331/80 92/246/80
f 84/248/65 85/332/65 51/249/65
