# Blender 4.2.0
# www.blender.org
mtllib toge.mtl
o Cube
v 0.500209 -0.023456 -0.380730
v 0.500209 -0.498362 -0.380730
v 0.500209 -0.023456 0.380730
v 0.500209 -0.498362 0.380730
v -0.500209 -0.023456 -0.380730
v -0.500209 -0.498362 -0.380730
v -0.500209 -0.023456 0.380730
v -0.500209 -0.498362 0.380730
v -0.328660 0.411016 0.000000
v -0.493585 -0.023456 0.032806
v -0.496816 -0.023456 0.000000
v -0.468477 -0.023456 0.093423
v -0.484016 -0.023456 0.064351
v -0.493585 -0.023456 -0.032806
v -0.484016 -0.023456 -0.064351
v -0.361465 -0.023456 0.164926
v -0.393010 -0.023456 0.155357
v -0.422082 -0.023456 0.139817
v -0.447564 -0.023456 0.118905
v -0.468477 -0.023456 -0.093423
v -0.447564 -0.023456 -0.118905
v -0.422082 -0.023456 -0.139817
v -0.393010 -0.023456 -0.155357
v -0.188842 -0.023456 0.093423
v -0.173303 -0.023456 0.064351
v -0.163734 -0.023456 -0.032806
v -0.163734 -0.023456 0.032806
v -0.173303 -0.023456 -0.064351
v -0.188842 -0.023456 -0.093423
v -0.328660 -0.023456 -0.168157
v -0.361465 -0.023456 -0.164926
v 0.002179 0.411016 0.000000
v -0.295854 -0.023456 -0.164926
v 0.332727 0.411016 0.000000
v -0.264309 -0.023456 -0.155357
v -0.235237 -0.023456 -0.139817
v -0.209755 -0.023456 -0.118905
v -0.328660 -0.023456 0.168157
v -0.295854 -0.023456 0.164926
v -0.264309 -0.023456 0.155357
v -0.209755 -0.023456 0.118905
v -0.235237 -0.023456 0.139817
v -0.091244 -0.023456 -0.139817
v -0.116726 -0.023456 -0.118905
v -0.137638 -0.023456 -0.093423
v 0.066530 -0.023456 -0.155357
v 0.034985 -0.023456 -0.164926
v 0.002179 -0.023456 -0.168157
v -0.030627 -0.023456 -0.164926
v -0.062172 -0.023456 -0.155357
v 0.121084 -0.023456 -0.118905
v 0.095602 -0.023456 -0.139817
v 0.141997 -0.023456 -0.093423
v 0.167105 -0.023456 0.032806
v 0.167105 -0.023456 -0.032806
v 0.157536 -0.023456 -0.064351
v 0.157536 -0.023456 0.064351
v -0.116726 -0.023456 0.118905
v -0.091244 -0.023456 0.139817
v 0.034985 -0.023456 0.164926
v 0.002179 -0.023456 0.168157
v -0.030627 -0.023456 0.164926
v -0.062172 -0.023456 0.155357
v -0.137638 -0.023456 0.093423
v 0.066530 -0.023456 0.155357
v -0.153177 -0.023456 -0.064351
v -0.153177 -0.023456 0.064351
v 0.095602 -0.023456 0.139817
v -0.162746 -0.023456 0.032806
v -0.163240 -0.023456 0.027794
v -0.162746 -0.023456 -0.032806
v 0.141997 -0.023456 0.093423
v -0.163240 -0.023456 -0.027794
v 0.121084 -0.023456 0.118905
v -0.163240 -0.017981 0.000000
v 0.239304 -0.023456 -0.139817
v 0.213822 -0.023456 -0.118905
v 0.192910 -0.023456 -0.093423
v 0.426150 -0.023456 -0.139817
v 0.397078 -0.023456 -0.155357
v 0.365533 -0.023456 -0.164926
v 0.332727 -0.023456 -0.168157
v 0.299921 -0.023456 -0.164926
v 0.268376 -0.023456 -0.155357
v 0.451632 -0.023456 0.118905
v 0.472544 -0.023456 0.093423
v 0.488084 -0.023456 0.064351
v 0.500884 -0.023456 0.000000
v 0.497653 -0.023456 0.032806
v 0.497653 -0.023456 -0.032806
v 0.488084 -0.023456 -0.064351
v 0.472544 -0.023456 -0.093423
v 0.451632 -0.023456 -0.118905
v 0.426150 -0.023456 0.139817
v 0.192910 -0.023456 0.093423
v 0.213822 -0.023456 0.118905
v 0.332727 -0.023456 0.168157
v 0.299921 -0.023456 0.164926
v 0.268376 -0.023456 0.155357
v 0.239304 -0.023456 0.139817
v 0.177370 -0.023456 0.064351
v 0.365533 -0.023456 0.164926
v 0.177370 -0.023456 -0.064351
v 0.167801 -0.023456 -0.032806
v 0.167801 -0.023456 0.032806
v 0.167453 -0.023456 0.029272
v 0.167453 -0.023456 -0.029272
v 0.397078 -0.023456 0.155357
v 0.167453 -0.017690 0.000000
vn -0.0000 -1.0000 -0.0000
vn -0.0000 1.0000 -0.0000
vn -0.0000 -0.0000 1.0000
vn -1.0000 -0.0000 -0.0000
vn 1.0000 -0.0000 -0.0000
vn -0.0000 -0.0000 -1.0000
vn 0.0915 0.3594 -0.9287
vn 0.2709 0.3594 -0.8930
vn 0.4399 0.3594 -0.8230
vn 0.5920 0.3594 -0.7214
vn 0.7214 0.3594 -0.5920
vn 0.8230 0.3594 -0.4399
vn 0.8930 0.3594 -0.2709
vn 0.8910 0.4455 -0.0878
vn 0.8910 0.4455 0.0878
vn 0.8930 0.3594 0.2709
vn 0.8230 0.3594 0.4399
vn 0.7214 0.3594 0.5920
vn 0.5920 0.3594 0.7214
vn 0.4399 0.3594 0.8230
vn 0.2709 0.3594 0.8930
vn 0.0915 0.3594 0.9287
vn -0.0915 0.3594 0.9287
vn -0.2709 0.3594 0.8930
vn -0.4399 0.3594 0.8230
vn -0.5920 0.3594 0.7213
vn -0.7214 0.3594 0.5920
vn -0.8230 0.3594 0.4399
vn -0.8930 0.3594 0.2709
vn -0.9287 0.3594 0.0915
vn -0.9287 0.3594 -0.0915
vn -0.8930 0.3594 -0.2709
vn -0.8230 0.3594 -0.4399
vn -0.7214 0.3594 -0.5920
vn -0.5920 0.3594 -0.7213
vn -0.4399 0.3594 -0.8230
vn -0.2709 0.3594 -0.8930
vn -0.0915 0.3594 -0.9287
vn -0.5920 0.3594 0.7214
vn -0.8910 0.4455 0.0878
vn -0.9305 0.3588 -0.0739
vn -0.5920 0.3594 -0.7214
vn 0.9287 0.3594 -0.0915
vn 0.9287 0.3594 0.0915
vn -0.9306 0.3588 -0.0729
vn 0.9305 0.3588 -0.0739
vn 0.9305 0.3588 0.0739
vn 0.9306 0.3588 -0.0729
vn 0.9306 0.3588 0.0729
vn -0.9305 0.3588 0.0739
vn -0.8910 0.4455 -0.0878
vn -0.9306 0.3588 0.0729
vt 0.296673 0.133488
vt 0.571921 0.133494
vt 0.434298 0.134692
vt 0.006550 0.383945
vt 0.282097 0.383945
vt 0.144323 0.385173
vt 0.006435 0.509402
vt 0.368454 0.681255
vt 0.006435 0.681255
vt 0.863563 0.470162
vt 0.588016 0.298309
vt 0.863563 0.298309
vt 0.006550 0.006435
vt 0.282097 0.368453
vt 0.006550 0.368454
vt 0.586164 0.282097
vt 0.758016 0.006550
vt 0.758016 0.282097
vt 0.742664 0.693729
vt 0.380646 0.521876
vt 0.742664 0.521876
vt 0.959100 0.232597
vt 0.971029 0.232597
vt 0.965064 0.401077
vt 0.174632 0.422186
vt 0.006046 0.422186
vt 0.006468 0.410265
vt 0.113015 0.986381
vt 0.107051 0.817900
vt 0.118980 0.817900
vt 0.464405 0.095951
vt 0.295819 0.095951
vt 0.296241 0.084030
vt 0.355020 0.797909
vt 0.186856 0.809830
vt 0.186434 0.797909
vt 0.786594 0.990219
vt 0.780630 0.821738
vt 0.792559 0.821738
vt 0.711752 0.990219
vt 0.705788 0.821738
vt 0.717717 0.821738
vt 0.890429 0.374499
vt 0.878681 0.377120
vt 0.888608 0.374562
vt 0.898105 0.747492
vt 0.886357 0.744872
vt 0.888179 0.744935
vt 0.809408 0.797909
vt 0.809830 0.809830
vt 0.641244 0.809830
vt 0.174210 0.709633
vt 0.174632 0.721555
vt 0.006046 0.721555
vt 0.801747 0.006468
vt 0.813668 0.006046
vt 0.813668 0.174632
vt 0.499236 0.721555
vt 0.667400 0.709633
vt 0.667822 0.721555
vt 0.840535 0.652470
vt 0.828613 0.484306
vt 0.840535 0.483884
vt 0.566113 0.740745
vt 0.397528 0.740745
vt 0.397950 0.728824
vt 0.541166 0.782964
vt 0.372580 0.782964
vt 0.540744 0.771042
vt 0.368453 0.717717
vt 0.199868 0.717717
vt 0.368031 0.705795
vt 0.782964 0.006468
vt 0.771042 0.174632
vt 0.771042 0.006046
vt 0.188775 0.744583
vt 0.188353 0.732662
vt 0.356939 0.732662
vt 0.730735 0.821738
vt 0.742664 0.821738
vt 0.736700 0.990219
vt 0.362696 0.821344
vt 0.194110 0.821344
vt 0.362274 0.809423
vt 0.556518 0.026866
vt 0.387932 0.026866
vt 0.556096 0.014945
vt 0.525399 0.817900
vt 0.537328 0.817900
vt 0.531364 0.986381
vt 0.188353 0.782964
vt 0.188776 0.771042
vt 0.356939 0.782964
vt 0.006468 0.748421
vt 0.006046 0.736500
vt 0.174632 0.736500
vt 0.882346 0.358858
vt 0.882346 0.190273
vt 0.894267 0.190695
vt 0.984254 0.224526
vt 0.978290 0.056046
vt 0.990219 0.056046
vt 0.859725 0.241798
vt 0.847804 0.073634
vt 0.859725 0.073212
vt 0.971029 0.416823
vt 0.965064 0.585304
vt 0.959100 0.416823
vt 0.582176 0.740338
vt 0.750340 0.752259
vt 0.581754 0.752259
vt 0.008387 0.706203
vt 0.007965 0.694281
vt 0.176551 0.694281
vt 0.959100 0.602969
vt 0.971029 0.602969
vt 0.965065 0.771450
vt 0.962938 0.787196
vt 0.974867 0.787196
vt 0.968902 0.955676
vt 0.406627 0.986381
vt 0.400662 0.817900
vt 0.412591 0.817900
vt 0.013226 0.986381
vt 0.007262 0.817900
vt 0.019190 0.817900
vt 0.038173 0.986381
vt 0.032209 0.817900
vt 0.044138 0.817900
vt 0.475919 0.108978
vt 0.307755 0.120899
vt 0.307333 0.108978
vt 0.381679 0.986381
vt 0.375715 0.817900
vt 0.387644 0.817900
vt 0.942036 0.746502
vt 0.936071 0.578022
vt 0.948000 0.578022
vt 0.921134 0.568321
vt 0.909395 0.571058
vt 0.919849 0.568365
vt 0.926891 0.762961
vt 0.915152 0.760224
vt 0.916436 0.760268
vt 0.821344 0.734988
vt 0.809423 0.734566
vt 0.821344 0.566402
vt 0.131998 0.817900
vt 0.143927 0.817900
vt 0.137963 0.986381
vt 0.936071 0.391876
vt 0.948000 0.391876
vt 0.942035 0.560356
vt 0.196030 0.756097
vt 0.364193 0.744176
vt 0.364615 0.756097
vt 0.431574 0.986381
vt 0.425610 0.817900
vt 0.437539 0.817900
vt 0.846292 0.848211
vt 0.834370 0.680047
vt 0.846292 0.679625
vt 0.802154 0.483884
vt 0.802154 0.652470
vt 0.790233 0.484306
vt 0.462486 0.817900
vt 0.456521 0.986381
vt 0.450557 0.817900
vt 0.295819 0.009188
vt 0.464405 0.009188
vt 0.296241 0.021109
vt 0.855480 0.484306
vt 0.867401 0.483884
vt 0.867401 0.652470
vt 0.192614 0.706203
vt 0.192191 0.694281
vt 0.360777 0.694281
vt 0.174632 0.805992
vt 0.006046 0.805992
vt 0.174210 0.794071
vt 0.755675 0.497028
vt 0.587511 0.485107
vt 0.756097 0.485107
vt 0.568033 0.805992
vt 0.399447 0.805992
vt 0.567610 0.794071
vt 0.894267 0.560645
vt 0.882519 0.563265
vt 0.892446 0.560708
vt 0.901709 0.006046
vt 0.913458 0.008666
vt 0.901709 0.174632
vt 0.828613 0.174632
vt 0.828613 0.006046
vt 0.840535 0.006468
vt 0.871239 0.842454
vt 0.859318 0.674290
vt 0.871239 0.673868
vt 0.943955 0.951838
vt 0.937990 0.783358
vt 0.949919 0.783358
vt 0.069085 0.817900
vt 0.063121 0.986381
vt 0.057156 0.817900
vt 0.886591 0.006468
vt 0.874670 0.174632
vt 0.874670 0.006046
vt 0.755690 0.529940
vt 0.767612 0.530363
vt 0.755690 0.698526
vt 0.550347 0.817900
vt 0.562275 0.817900
vt 0.556311 0.986381
vt 0.475505 0.817900
vt 0.487433 0.817900
vt 0.481469 0.986381
vt 0.006046 0.763774
vt 0.174209 0.751852
vt 0.174631 0.763774
vt 0.384094 0.076761
vt 0.552258 0.064840
vt 0.552680 0.076761
vt 0.938198 0.174632
vt 0.932233 0.006151
vt 0.944162 0.006151
vt 0.546923 0.755690
vt 0.378759 0.767612
vt 0.378337 0.755690
vt 0.552680 0.705795
vt 0.384516 0.717717
vt 0.384094 0.705795
vt 0.942036 0.376130
vt 0.936071 0.207649
vt 0.948000 0.207649
vt 0.767612 0.821738
vt 0.761647 0.990219
vt 0.755683 0.821738
vt 0.642875 0.821738
vt 0.636910 0.990219
vt 0.630946 0.821738
vt 0.512381 0.817900
vt 0.506416 0.986381
vt 0.500452 0.817900
vt 0.782541 0.774881
vt 0.782963 0.786802
vt 0.614378 0.786802
vt 0.256728 0.467836
vt 0.257150 0.479757
vt 0.088564 0.479757
vt 0.661858 0.990219
vt 0.655893 0.821738
vt 0.667822 0.821738
vt 0.592980 0.791034
vt 0.587016 0.959514
vt 0.581051 0.791034
vt 0.552969 0.767204
vt 0.721555 0.767204
vt 0.553391 0.779126
vt 0.296241 0.034135
vt 0.464405 0.046057
vt 0.295819 0.046057
vt 0.094032 0.817900
vt 0.088068 0.986381
vt 0.082104 0.817900
vt 0.778719 0.237538
vt 0.790640 0.069374
vt 0.790640 0.237960
vt 0.982128 0.257544
vt 0.994057 0.257544
vt 0.988093 0.426024
vt 0.779126 0.708122
vt 0.767204 0.707700
vt 0.779126 0.539536
vt 0.817506 0.821738
vt 0.811542 0.990219
vt 0.805577 0.821738
vt 0.257150 0.441376
vt 0.088564 0.441377
vt 0.256728 0.429455
vt 0.617927 0.798710
vt 0.611963 0.967190
vt 0.605999 0.798710
vt 0.917296 0.382175
vt 0.905557 0.384913
vt 0.916011 0.382220
vt 0.909395 0.190272
vt 0.921134 0.193010
vt 0.909395 0.358858
vt 0.552680 0.504705
vt 0.384094 0.504705
vt 0.384516 0.492783
vt 0.686805 0.990219
vt 0.680841 0.821738
vt 0.692769 0.821738
vt 0.162910 0.986381
vt 0.156946 0.817900
vt 0.168874 0.817900
vt 0.295819 0.059083
vt 0.464405 0.059083
vt 0.296241 0.071004
vt 0.006046 0.778719
vt 0.174632 0.778719
vt 0.006468 0.790640
vt 0.955262 0.031099
vt 0.967190 0.031099
vt 0.961226 0.199579
vt 0.006046 0.460567
vt 0.006468 0.448646
vt 0.174632 0.460567
vt 0.421173 0.254967
vt 0.422449 0.255106
vt 0.421170 0.255218
vt 0.409731 0.258557
vt 0.409807 0.251388
vt 0.399164 0.264064
vt 0.399357 0.245660
vt 0.389873 0.271526
vt 0.390226 0.238004
vt 0.382217 0.280658
vt 0.382763 0.228714
vt 0.376489 0.291107
vt 0.377257 0.218146
vt 0.372910 0.302473
vt 0.373918 0.206707
vt 0.371618 0.314319
vt 0.372875 0.194836
vt 0.447420 0.255217
vt 0.446141 0.255104
vt 0.447417 0.254965
vt 0.458858 0.258556
vt 0.458783 0.251387
vt 0.469426 0.264063
vt 0.469233 0.245660
vt 0.478716 0.271526
vt 0.478365 0.238004
vt 0.486371 0.280657
vt 0.485827 0.228714
vt 0.492098 0.291107
vt 0.491334 0.218147
vt 0.495677 0.302473
vt 0.494673 0.206708
vt 0.496969 0.314319
vt 0.495717 0.194838
vt 0.419916 0.374450
vt 0.421726 0.374647
vt 0.419912 0.374807
vt 0.408473 0.378146
vt 0.408550 0.370871
vt 0.397905 0.383652
vt 0.398100 0.365143
vt 0.388615 0.391114
vt 0.388969 0.357487
vt 0.380959 0.400246
vt 0.381506 0.348197
vt 0.375231 0.410695
vt 0.376000 0.337629
vt 0.292868 0.495109
vt 0.371652 0.422062
vt 0.372661 0.326190
vt 0.370360 0.433908
vt 0.448672 0.374803
vt 0.446859 0.374644
vt 0.448669 0.374446
vt 0.460111 0.378143
vt 0.460035 0.370868
vt 0.470678 0.383649
vt 0.470485 0.365141
vt 0.479968 0.391112
vt 0.479616 0.357485
vt 0.487624 0.400244
vt 0.487079 0.348195
vt 0.493351 0.410693
vt 0.492586 0.337628
vt 0.496929 0.422059
vt 0.575709 0.495109
vt 0.495925 0.326189
vt 0.498221 0.433905
vt 0.380248 0.467785
vt 0.387711 0.477075
vt 0.480869 0.477072
vt 0.488332 0.467782
vt 0.493838 0.457214
vt 0.374742 0.457217
vt 0.371403 0.445778
vt 0.497178 0.445776
vt 0.494425 0.182992
vt 0.374168 0.182990
vt 0.377746 0.171624
vt 0.490847 0.171626
vt 0.485120 0.161176
vt 0.383474 0.161175
vt 0.391130 0.152043
vt 0.477464 0.152045
vt 0.468174 0.144582
vt 0.400421 0.144581
vt 0.410988 0.139074
vt 0.457607 0.139075
vt 0.446168 0.135736
vt 0.422427 0.135735
vt 0.110517 0.395428
vt 0.101296 0.402996
vt 0.187351 0.402996
vt 0.178130 0.395429
vt 0.167610 0.389805
vt 0.121037 0.389805
vt 0.132452 0.386343
vt 0.156195 0.386343
vt 0.368454 0.509402
vt 0.588016 0.470162
vt 0.282097 0.006435
vt 0.586164 0.006550
vt 0.380646 0.693729
vt 0.890429 0.543085
vt 0.886357 0.913458
vt 0.921134 0.736907
vt 0.915152 0.928810
vt 0.894267 0.729231
vt 0.903531 0.006109
vt 0.917296 0.550761
vt 0.910679 0.190317
s 0
usemtl Material.001
f 3/1/1 1/2/1 88/3/1
f 5/4/2 7/5/2 11/6/2
f 3/7/3 8/8/3 4/9/3
f 7/10/4 6/11/4 8/12/4
f 2/13/1 8/14/1 6/15/1
f 1/16/5 4/17/5 2/18/5
f 5/19/6 2/20/6 6/21/6
f 33/22/7 30/23/7 9/24/7
f 9/25/8 35/26/8 33/27/8
f 9/28/9 36/29/9 35/30/9
f 9/31/10 37/32/10 36/33/10
f 9/34/11 29/35/11 37/36/11
f 9/37/12 28/38/12 29/39/12
f 9/40/13 26/41/13 28/42/13
f 26/43/14 75/44/14 73/45/14
f 75/46/15 27/47/15 70/48/15
f 25/49/16 27/50/16 9/51/16
f 24/52/17 25/53/17 9/54/17
f 41/55/18 24/56/18 9/57/18
f 9/58/19 42/59/19 41/60/19
f 9/61/20 40/62/20 42/63/20
f 9/64/21 39/65/21 40/66/21
f 39/67/22 9/68/22 38/69/22
f 38/70/23 9/71/23 16/72/23
f 16/73/24 9/74/24 17/75/24
f 18/76/25 17/77/25 9/78/25
f 19/79/26 18/80/26 9/81/26
f 19/82/27 9/83/27 12/84/27
f 12/85/28 9/86/28 13/87/28
f 10/88/29 13/89/29 9/90/29
f 11/91/30 10/92/30 9/93/30
f 14/94/31 11/95/31 9/96/31
f 9/97/32 15/98/32 14/99/32
f 9/100/33 20/101/33 15/102/33
f 9/103/34 21/104/34 20/105/34
f 21/106/35 9/107/35 22/108/35
f 22/109/36 9/110/36 23/111/36
f 31/112/37 23/113/37 9/114/37
f 30/115/38 31/116/38 9/117/38
f 47/118/7 48/119/7 32/120/7
f 32/121/8 46/122/8 47/123/8
f 32/124/9 52/125/9 46/126/9
f 32/127/10 51/128/10 52/129/10
f 32/130/11 53/131/11 51/132/11
f 32/133/12 56/134/12 53/135/12
f 32/136/13 55/137/13 56/138/13
f 55/139/14 109/140/14 107/141/14
f 109/142/15 54/143/15 106/144/15
f 57/145/16 54/146/16 32/147/16
f 72/148/17 57/149/17 32/150/17
f 74/151/18 72/152/18 32/153/18
f 32/154/19 68/155/19 74/156/19
f 32/157/20 65/158/20 68/159/20
f 32/160/21 60/161/21 65/162/21
f 60/163/22 32/164/22 61/165/22
f 61/166/23 32/167/23 62/168/23
f 62/169/24 32/170/24 63/171/24
f 59/172/25 63/173/25 32/174/25
f 58/175/39 59/176/39 32/177/39
f 58/178/27 32/179/27 64/180/27
f 64/181/28 32/182/28 67/183/28
f 67/184/29 32/185/29 69/186/29
f 69/187/40 75/188/40 70/189/40
f 71/190/41 75/191/41 32/192/41
f 32/193/32 66/194/32 71/195/32
f 32/196/33 45/197/33 66/198/33
f 32/199/34 44/200/34 45/201/34
f 44/202/42 32/203/42 43/204/42
f 43/205/36 32/206/36 50/207/36
f 49/208/37 50/209/37 32/210/37
f 48/211/38 49/212/38 32/213/38
f 81/214/7 82/215/7 34/216/7
f 34/217/8 80/218/8 81/219/8
f 34/220/9 79/221/9 80/222/9
f 34/223/10 93/224/10 79/225/10
f 34/226/11 92/227/11 93/228/11
f 34/229/12 91/230/12 92/231/12
f 34/232/13 90/233/13 91/234/13
f 90/235/43 34/236/43 88/237/43
f 88/238/44 34/239/44 89/240/44
f 89/241/16 34/242/16 87/243/16
f 86/244/17 87/245/17 34/246/17
f 85/247/18 86/248/18 34/249/18
f 34/250/19 94/251/19 85/252/19
f 94/253/20 34/254/20 108/255/20
f 108/256/21 34/257/21 102/258/21
f 102/259/22 34/260/22 97/261/22
f 97/262/23 34/263/23 98/264/23
f 98/265/24 34/266/24 99/267/24
f 100/268/25 99/269/25 34/270/25
f 96/271/39 100/272/39 34/273/39
f 96/274/27 34/275/27 95/276/27
f 95/277/28 34/278/28 101/279/28
f 101/280/29 34/281/29 105/282/29
f 105/283/40 109/284/40 106/285/40
f 104/286/45 109/287/45 34/288/45
f 34/289/32 103/290/32 104/291/32
f 34/292/33 78/293/33 103/294/33
f 34/295/34 77/296/34 78/297/34
f 77/298/42 34/299/42 76/300/42
f 76/301/36 34/302/36 84/303/36
f 83/304/37 84/305/37 34/306/37
f 82/307/38 83/308/38 34/309/38
f 105/310/2 106/311/2 54/312/2
f 105/310/2 54/312/2 57/313/2
f 101/314/2 105/310/2 57/313/2
f 101/314/2 57/313/2 72/315/2
f 95/316/2 101/314/2 72/315/2
f 95/316/2 72/315/2 74/317/2
f 96/318/2 95/316/2 74/317/2
f 96/318/2 74/317/2 68/319/2
f 100/320/2 96/318/2 68/319/2
f 100/320/2 68/319/2 65/321/2
f 99/322/2 100/320/2 65/321/2
f 99/322/2 65/321/2 3/1/2
f 65/321/2 60/323/2 3/1/2
f 98/324/2 99/322/2 3/1/2
f 60/323/2 61/325/2 3/1/2
f 97/326/2 98/324/2 3/1/2
f 55/327/2 107/328/2 104/329/2
f 56/330/2 55/327/2 104/329/2
f 56/330/2 104/329/2 103/331/2
f 53/332/2 56/330/2 103/331/2
f 53/332/2 103/331/2 78/333/2
f 51/334/2 53/332/2 78/333/2
f 51/334/2 78/333/2 77/335/2
f 52/336/2 51/334/2 77/335/2
f 52/336/2 77/335/2 76/337/2
f 46/338/2 52/336/2 84/339/2
f 52/336/2 76/337/2 84/339/2
f 47/340/2 46/338/2 1/2/2
f 46/338/2 84/339/2 1/2/2
f 84/339/2 83/341/2 1/2/2
f 48/342/2 47/340/2 1/2/2
f 83/341/2 82/343/2 1/2/2
f 69/344/2 70/345/2 27/346/2
f 69/344/2 27/346/2 25/347/2
f 67/348/2 69/344/2 25/347/2
f 67/348/2 25/347/2 24/349/2
f 64/350/2 67/348/2 24/349/2
f 64/350/2 24/349/2 41/351/2
f 58/352/2 64/350/2 41/351/2
f 58/352/2 41/351/2 42/353/2
f 59/354/2 58/352/2 42/353/2
f 59/354/2 42/353/2 40/355/2
f 63/356/2 59/354/2 40/355/2
f 63/356/2 40/355/2 7/357/2
f 40/355/2 39/358/2 7/357/2
f 62/359/2 63/356/2 7/357/2
f 39/358/2 38/360/2 7/357/2
f 61/325/2 62/359/2 7/357/2
f 26/361/2 73/362/2 71/363/2
f 28/364/2 26/361/2 71/363/2
f 28/364/2 71/363/2 66/365/2
f 29/366/2 28/364/2 66/365/2
f 29/366/2 66/365/2 45/367/2
f 37/368/2 29/366/2 45/367/2
f 37/368/2 45/367/2 44/369/2
f 36/370/2 37/368/2 44/369/2
f 36/370/2 44/369/2 43/371/2
f 35/372/2 36/370/2 43/371/2
f 35/372/2 43/371/2 50/373/2
f 33/374/2 35/372/2 5/375/2
f 35/372/2 50/373/2 5/375/2
f 50/373/2 49/376/2 5/375/2
f 30/377/2 33/374/2 5/375/2
f 49/376/2 48/342/2 5/375/2
f 18/378/2 19/379/2 7/357/2
f 5/375/2 21/380/2 22/381/2
f 5/375/2 22/381/2 23/382/2
f 17/383/2 18/378/2 7/357/2
f 16/384/2 17/383/2 7/357/2
f 5/375/2 23/382/2 31/385/2
f 5/375/2 31/385/2 30/377/2
f 16/384/2 7/357/2 38/360/2
f 7/357/2 3/1/2 61/325/2
f 1/2/2 5/375/2 48/342/2
f 1/2/2 82/343/2 81/386/2
f 102/387/2 97/326/2 3/1/2
f 108/388/2 102/387/2 3/1/2
f 1/2/2 81/386/2 80/389/2
f 1/2/2 80/389/2 79/390/2
f 94/391/2 108/388/2 3/1/2
f 85/392/2 94/391/2 3/1/2
f 1/2/2 79/390/2 93/393/2
f 1/2/2 93/393/2 92/394/2
f 86/395/2 85/392/2 3/1/2
f 87/396/2 86/395/2 3/1/2
f 1/2/2 92/394/2 91/397/2
f 1/2/2 91/397/2 90/398/2
f 89/399/2 87/396/2 3/1/2
f 1/2/2 90/398/2 88/3/2
f 88/3/2 89/399/2 3/1/2
f 20/400/2 21/401/2 5/4/2
f 7/5/2 19/402/2 12/403/2
f 7/5/2 12/403/2 13/404/2
f 15/405/2 20/400/2 5/4/2
f 14/406/2 15/405/2 5/4/2
f 7/5/2 13/404/2 10/407/2
f 11/6/2 14/406/2 5/4/2
f 7/5/2 10/407/2 11/6/2
f 3/7/3 7/408/3 8/8/3
f 7/10/4 5/409/4 6/11/4
f 2/13/1 4/410/1 8/14/1
f 1/16/5 3/411/5 4/17/5
f 5/19/6 1/412/6 2/20/6
f 26/43/46 9/413/46 75/44/46
f 75/46/47 9/414/47 27/47/47
f 55/139/48 32/415/48 109/140/48
f 109/142/49 32/416/49 54/143/49
f 69/187/50 32/417/50 75/188/50
f 71/190/51 73/418/51 75/191/51
f 105/283/52 34/419/52 109/284/52
f 104/286/51 107/420/51 109/287/51
